<?xml version="1.0" standalone="no"?>
<!DOCTYPE svg PUBLIC "-//W3C//DTD SVG 20010904//EN"
 "http://www.w3.org/TR/2001/REC-SVG-20010904/DTD/svg10.dtd">
<svg version="1.0" xmlns="http://www.w3.org/2000/svg"
 width="600.000000pt" height="567.000000pt" viewBox="0 0 600.000000 567.000000"
 preserveAspectRatio="xMidYMid meet">
<g transform="translate(0.000000,567.000000) scale(0.050000,-0.050000)"
fill="#000000" stroke="none">
<path d="M5600 11098 c-1335 -88 -2545 -638 -3491 -1586 -312 -313 -716 -812
-684 -844 5 -5 33 28 63 72 179 271 690 778 1082 1074 2036 1538 4934 1490
6930 -116 351 -282 507 -440 936 -949 45 -53 35 -32 -28 61 -790 1159 -2122
1991 -3568 2228 -224 37 -812 86 -940 79 -27 -1 -162 -10 -300 -19z"/>
<path d="M5360 10670 c-2156 -239 -3998 -1885 -4467 -3990 -705 -3171 1776
-6201 5076 -6200 2835 1 5172 2299 5176 5090 5 3056 -2702 5442 -5785 5100z
m1083 -380 c1809 -211 3375 -1454 3926 -3115 94 -287 89 -322 -8 -50 -529
1482 -1864 2653 -3411 2992 -2261 497 -4613 -808 -5383 -2986 -93 -264 -110
-285 -45 -55 563 2009 2790 3464 4921 3214z m-73 -431 c3037 -284 4867 -3550
3473 -6199 -1550 -2945 -5685 -3167 -7524 -404 -1985 2981 444 6941 4051 6603z
m2518 -7842 c-58 -65 -342 -297 -488 -399 -1435 -1003 -3294 -1036 -4748 -85
-260 171 -723 548 -598 488 24 -12 49 -29 55 -39 33 -54 571 -381 851 -517
1547 -752 3488 -548 4840 509 123 96 145 107 88 43z"/>
<path d="M5630 9647 c-1915 -115 -3522 -1608 -3740 -3477 -16 -143 -29 -305
-28 -360 3 -116 6 -104 38 140 229 1763 1652 3254 3446 3611 163 32 329 60
370 61 41 1 97 9 124 18 55 17 -2 19 -210 7z"/>
<path d="M5649 9239 c-2584 -212 -4174 -2965 -3029 -5243 1252 -2491 4669
-2788 6341 -551 1871 2502 -159 6054 -3312 5794z m921 -548 c1937 -353 3121
-2435 2399 -4220 -980 -2423 -4282 -2750 -5723 -567 -1234 1870 -53 4473 2174
4794 83 12 173 26 200 30 115 20 779 -6 950 -37z"/>
<path d="M5974 8370 c-31 -191 -40 -210 -55 -110 -10 71 -14 50 -17 -100 -5
-208 -25 -202 -59 20 l-20 130 8 -140 8 -140 -31 120 c-70 278 -72 278 -37 0
16 -132 -23 -98 -62 53 l-28 107 11 -97 c8 -67 4 -93 -10 -84 -12 7 -23 29
-24 47 0 19 -14 70 -29 114 l-27 80 11 -107 11 -106 -67 34 c-37 19 -74 45
-82 57 -8 12 -15 16 -15 8 0 -7 -65 13 -144 45 -160 66 -296 96 -296 64 0 -11
25 -27 55 -34 270 -68 706 -334 1000 -612 178 -168 207 -177 219 -70 12 114
26 114 26 1 0 -170 27 -77 42 145 8 118 20 278 26 355 l11 140 -28 -100 -27
-100 -4 140 -4 140 -37 -170 c-21 -94 -38 -253 -38 -356 -1 -133 -7 -182 -24
-172 -15 9 -18 56 -10 143 11 117 9 126 -20 102 -29 -24 -31 -4 -24 223 8 202
5 234 -12 166 -11 -46 -28 -90 -36 -98 -8 -8 -15 -31 -15 -51 0 -20 -9 -37
-20 -37 -12 0 -16 -34 -9 -85 29 -230 30 -247 6 -207 -12 21 -29 152 -37 290
-7 139 -15 210 -17 159 -6 -179 -33 -171 -43 13 -10 174 -11 177 -26 80z"/>
<path d="M6937 8255 c271 -346 492 -828 562 -1225 22 -124 48 -180 152 -326 3
-4 53 30 111 74 59 44 111 76 116 71 5 -6 -12 -25 -39 -44 -83 -58 -170 -144
-146 -144 12 -1 78 37 147 84 199 137 215 144 120 58 -49 -45 -87 -93 -83
-107 3 -14 1 -20 -6 -14 -7 7 -39 -10 -72 -39 -127 -111 -11 -75 342 109 360
187 393 206 229 139 l-80 -34 60 53 c72 63 34 46 -177 -79 -224 -132 -230
-103 -10 45 277 185 305 213 122 121 -175 -87 -211 -92 -144 -21 55 59 22 56
-61 -6 -37 -27 -72 -50 -77 -50 -21 0 72 88 137 131 39 25 97 70 130 99 l60
53 -80 -52 c-125 -81 -130 -59 -10 51 l110 101 -120 -74 c-66 -40 -174 -124
-240 -187 -220 -209 -251 -219 -74 -26 43 48 7 54 -42 7 -82 -76 -79 -46 5 54
45 53 136 136 202 183 65 48 119 90 119 94 0 21 -210 -105 -311 -187 -100 -82
-111 -87 -69 -33 28 35 107 109 176 165 70 56 120 101 112 101 -28 0 -239
-165 -315 -247 -63 -68 -71 -72 -42 -23 20 33 95 123 167 199 73 77 110 122
82 101 -110 -85 -225 -205 -283 -295 -34 -52 -65 -95 -71 -95 -19 0 156 263
213 321 6 5 52 54 101 108 l90 99 -80 -57 c-44 -32 -102 -77 -130 -100 -103
-88 -133 -104 -80 -40 28 32 61 66 75 75 14 9 25 26 25 39 0 40 -142 -110
-222 -235 -43 -66 -78 -108 -78 -94 0 42 137 247 237 353 76 80 80 88 23 42
-83 -67 -177 -174 -239 -271 -31 -50 -40 -56 -30 -22 9 32 6 43 -9 33 -14 -8
-17 -1 -8 21 9 24 5 30 -11 20 -45 -28 -22 14 118 212 161 229 156 242 -12 31
-201 -250 -193 -212 14 67 146 198 106 175 -64 -37 -135 -167 -163 -143 -36
31 129 177 130 182 21 64 -56 -60 -103 -117 -103 -125 -1 -23 -41 -18 -41 6 0
11 45 87 100 169 100 149 139 232 55 118 -25 -34 -76 -104 -115 -157 -85 -116
-114 -64 -34 63 117 186 121 228 5 54 l-74 -113 -29 56 c-26 49 -25 61 12 123
53 90 51 114 -2 31 -41 -64 -88 -73 -65 -14 7 17 3 28 -9 25 -29 -9 -148 161
-132 188 8 13 5 17 -7 9 -12 -7 -43 16 -68 52 -76 107 -162 195 -191 195 -15
0 16 -55 71 -125z m743 -1345 c-37 -38 -72 -65 -77 -59 -6 5 20 41 57 79 37
38 72 65 77 59 6 -5 -20 -41 -57 -79z m28 -53 c-10 -17 -3 -20 24 -10 31 10
29 5 -9 -27 -58 -49 -99 -31 -51 22 38 42 58 50 36 15z"/>
<path d="M6524 8225 l-43 -135 7 110 8 110 -29 -90 c-38 -119 -91 -501 -83
-595 5 -59 17 -25 55 155 27 127 52 216 56 200 3 -17 -11 -116 -33 -220 -43
-211 -42 -246 5 -116 l31 86 -12 -110 c-6 -60 -7 -105 -1 -100 27 25 203 739
187 755 -5 5 -34 -69 -64 -163 -69 -212 -75 -207 -50 40 25 238 21 245 -34 73z"/>
<path d="M6742 8159 c-14 -47 -55 -150 -91 -228 -61 -133 -128 -381 -107 -401
5 -5 25 41 44 102 44 141 60 132 22 -12 -27 -102 -9 -174 31 -124 16 20 145
326 206 489 85 224 30 151 -86 -115 -145 -334 -149 -322 -38 107 57 220 71
357 19 182z"/>
<path d="M4771 8120 c7 -27 57 -149 111 -270 102 -232 89 -232 -48 0 -115 195
-166 229 -95 63 53 -125 38 -117 -49 27 -111 183 -137 168 -39 -22 18 -34 28
-66 22 -72 -5 -5 -20 9 -32 32 -12 23 -32 42 -44 42 -35 0 -2 -122 47 -174 24
-25 34 -46 22 -46 -11 0 -73 72 -137 160 -65 88 -120 160 -123 160 -10 0 60
-169 82 -199 12 -16 -7 -9 -43 16 -36 25 -65 56 -65 68 0 12 -5 17 -11 10 -7
-6 3 -41 20 -78 l33 -67 -71 80 c-70 80 -90 83 -49 7 32 -60 5 -70 -51 -18
-48 45 -48 45 -37 3 9 -35 2 -41 -38 -38 -119 10 -377 -182 -436 -324 -16 -38
-36 -58 -53 -52 -31 12 -37 -19 -7 -38 34 -21 22 -49 -15 -36 -29 10 -30 7
-10 -15 34 -37 35 -97 1 -63 -45 45 -63 24 -19 -22 61 -66 54 -80 -22 -43
l-65 31 60 -57 c112 -106 126 -131 58 -102 -32 13 -67 32 -77 41 -70 59 -43
-1 29 -66 l90 -81 -120 62 c-112 58 -105 43 20 -46 80 -56 41 -66 -55 -15
l-85 45 70 -63 70 -63 -65 8 c-51 6 -60 3 -42 -19 17 -20 13 -26 -19 -26 -22
0 -44 -7 -47 -15 -4 -8 -47 -41 -97 -73 -172 -110 -260 -224 -95 -122 283 173
535 271 587 228 16 -13 25 -28 19 -34 -5 -5 30 -36 80 -69 117 -77 113 -88
-10 -25 -228 115 -203 53 41 -101 158 -100 185 -111 210 -86 25 25 18 35 -52
74 -103 59 -104 76 -1 23 97 -49 137 -53 101 -10 -22 26 -20 29 7 18 19 -7 33
-2 33 11 0 12 11 21 25 18 48 -9 164 28 234 75 139 92 157 118 212 314 29 105
108 214 155 214 9 0 -3 29 -28 65 l-45 65 64 -59 c84 -78 81 -30 -7 92 -38 53
-63 97 -55 97 8 0 46 -45 83 -100 75 -110 129 -139 66 -35 -84 137 -126 220
-120 238 4 11 46 -49 93 -133 86 -150 137 -197 73 -67 l-32 67 40 -50 c23 -27
41 -58 42 -68 0 -10 5 -14 11 -7 7 6 -3 41 -20 78 -34 69 3 37 49 -43 9 -16
21 -25 27 -20 11 12 -288 636 -337 703 l-34 47 15 -50z"/>
<path d="M4901 8157 c-6 -69 248 -734 272 -711 6 6 1 29 -11 51 -12 22 -22 52
-21 67 0 14 18 -5 39 -44 21 -38 39 -60 39 -47 1 30 -315 711 -318 684z"/>
<path d="M5030 8090 c101 -320 182 -541 212 -576 49 -58 -94 375 -170 516 -30
55 -49 82 -42 60z"/>
<path d="M5293 8037 c8 -65 5 -79 -11 -57 -29 41 -27 15 6 -75 16 -41 34 -115
41 -165 7 -49 17 -112 22 -140 8 -44 7 -45 -9 -10 -13 27 -20 30 -20 10 -1
-16 7 -43 18 -60 17 -27 19 -27 20 0 1 27 3 27 22 0 17 -24 19 -23 10 10 -5
22 -15 67 -21 100 l-11 60 29 -60 c16 -33 30 -73 30 -88 1 -16 6 -24 11 -19
10 11 -120 554 -137 571 -5 5 -5 -30 0 -77z"/>
<path d="M5150 8060 c43 -193 137 -533 152 -549 24 -25 23 12 -2 79 -13 35
-13 48 0 40 29 -18 25 52 -8 142 -42 118 -154 345 -142 288z"/>
<path d="M5380 8074 c0 -52 87 -489 102 -513 14 -22 17 -12 8 39 l-11 70 30
-60 c17 -33 27 -42 22 -20 -5 22 -27 128 -49 235 -29 146 -102 324 -102 249z"/>
<path d="M6804 7776 c-84 -178 -118 -270 -104 -284 18 -18 29 6 23 51 -1 7 12
18 28 25 24 9 26 4 8 -30 -39 -73 -8 -86 39 -16 25 37 39 50 32 28 -45 -126
-21 -94 88 116 130 252 146 294 80 214 l-41 -50 14 50 c8 28 18 64 23 80 4 17
-28 -42 -71 -130 -150 -306 -146 -212 7 175 8 19 11 35 7 35 -4 0 -64 -119
-133 -264z"/>
<path d="M5506 7945 c5 -30 22 -127 36 -215 20 -123 29 -149 40 -110 8 29 15
36 16 16 1 -18 10 -39 21 -45 10 -7 1 49 -21 124 -21 74 -48 169 -59 210 -24
87 -49 102 -33 20z"/>
<path d="M7404 7896 c-37 -55 -63 -103 -59 -108 5 -4 38 38 74 93 36 56 62
105 58 109 -4 4 -37 -38 -73 -94z"/>
<path d="M5610 7866 c18 -137 67 -296 69 -225 2 80 -40 287 -63 309 -14 14
-16 -13 -6 -84z"/>
<path d="M5693 7791 c7 -66 20 -142 30 -170 11 -34 13 -13 6 62 -6 62 -20 139
-30 170 -12 41 -14 23 -6 -62z"/>
<path d="M5753 7760 c7 -60 16 -114 20 -118 15 -18 3 150 -14 188 -11 26 -13
2 -6 -70z"/>
<path d="M5803 7790 c0 -22 7 -76 16 -120 l16 -80 1 70 c0 39 -7 93 -16 120
-13 40 -16 42 -17 10z"/>
<path d="M6987 7695 c-86 -128 -147 -241 -147 -269 0 -9 18 13 40 49 49 81 72
86 31 6 -52 -99 -35 -94 31 9 52 82 158 298 158 322 0 33 -43 -12 -113 -117z"/>
<path d="M7020 7563 c-105 -176 -113 -193 -83 -175 13 8 23 3 24 -12 0 -14 36
42 80 124 109 204 92 254 -21 63z"/>
<path d="M7165 7615 c-42 -52 -186 -298 -168 -287 11 7 23 2 27 -11 5 -13 47
51 94 141 78 150 100 223 47 157z"/>
<path d="M7682 7528 c-122 -133 -145 -171 -123 -207 12 -18 33 2 72 72 31 53
82 131 114 172 85 110 54 92 -63 -37z"/>
<path d="M7137 7415 c-61 -104 -68 -128 -43 -142 16 -9 32 -14 35 -10 56 69
109 199 96 235 -14 38 -24 28 -88 -83z"/>
<path d="M7211 7339 c-30 -46 -50 -86 -46 -91 4 -4 32 29 62 75 30 45 51 86
47 90 -5 4 -33 -29 -63 -74z"/>
<path d="M7230 7275 c-48 -73 -50 -80 -11 -45 49 43 89 108 76 122 -5 5 -34
-30 -65 -77z"/>
<path d="M5000 5588 c0 -1452 4 -1671 29 -1661 16 6 117 64 225 129 108 64
646 386 1196 714 1219 727 1356 809 1366 819 4 4 -81 59 -189 122 -108 63
-251 148 -317 189 -66 41 -502 303 -970 581 -467 278 -952 567 -1077 642 -124
75 -235 137 -245 137 -11 0 -18 -679 -18 -1672z"/>
<path d="M8280 6772 c-364 -166 -528 -250 -514 -265 6 -5 40 5 77 22 l67 33
-60 -51 c-72 -61 -56 -65 51 -11 43 23 79 36 79 31 0 -6 -37 -29 -82 -52 -45
-23 -77 -47 -71 -53 20 -19 733 314 733 343 0 6 -457 -176 -525 -209 -121 -59
93 89 274 188 240 133 230 141 -29 24z"/>
<path d="M3660 6742 c0 -9 22 -26 49 -38 27 -12 83 -52 125 -89 84 -75 264
-184 278 -169 6 5 -20 28 -56 51 -69 44 -64 59 7 21 87 -46 53 1 -42 59 -128
79 -361 185 -361 165z"/>
<path d="M3550 6680 c11 -17 339 -241 378 -258 10 -4 11 3 4 15 -8 12 16 9 57
-8 114 -48 129 -31 21 24 -55 29 -113 63 -130 77 -41 35 -344 172 -330 150z"/>
<path d="M3510 6627 c11 -11 46 -40 78 -64 68 -51 46 -55 -61 -11 -133 55 -62
12 155 -94 273 -133 353 -161 366 -127 10 26 -83 101 -102 82 -5 -5 16 -24 47
-41 31 -17 48 -31 37 -31 -11 -1 -96 45 -190 102 -225 135 -355 208 -330 184z"/>
<path d="M8250 6551 c-237 -83 -421 -166 -406 -182 13 -13 375 120 536 196
197 94 163 90 -130 -14z"/>
<path d="M8731 6568 c-78 -313 -358 -784 -646 -1090 -183 -195 -177 -227 50
-254 l175 -21 -187 6 c-277 9 -197 -21 187 -70 511 -66 498 -66 370 -21 l-110
39 120 -9 c114 -8 110 -6 -75 38 -243 58 -265 78 -74 65 l149 -9 -150 27 c-82
16 -229 35 -326 43 -288 23 -171 51 233 55 442 4 387 50 -67 55 -276 4 -200
30 110 39 155 4 157 5 60 20 -55 9 -158 12 -230 8 -128 -7 -128 -7 -30 10 55
10 190 20 300 23 l200 5 -160 12 c-179 12 -92 39 138 42 152 2 48 37 -157 54
-114 9 -146 17 -111 27 38 11 26 14 -48 16 -136 3 -113 14 107 52 104 18 203
42 220 52 25 16 23 18 -9 10 -22 -5 -112 -16 -200 -23 -201 -17 -184 15 30 58
l150 29 -135 -11 c-188 -15 -173 21 26 64 190 41 202 59 20 30 -148 -24 -183
-11 -58 21 126 32 139 41 42 28 -149 -20 -96 52 59 80 41 8 81 24 89 36 9 15
2 18 -18 11 -79 -31 -181 -40 -166 -16 8 13 34 32 58 41 34 14 36 18 8 19 -43
1 -46 38 -5 54 16 6 25 19 19 29 -6 10 -5 29 4 43 8 13 17 38 19 55 2 16 18
74 35 128 18 57 24 111 15 128 -12 22 -20 15 -31 -28z"/>
<path d="M8350 6478 c-66 -22 -189 -56 -273 -77 -85 -20 -170 -48 -190 -61
-32 -20 -31 -21 13 -10 121 32 143 28 60 -8 -154 -68 -28 -46 176 30 317 119
470 208 214 126z"/>
<path d="M3422 6492 c29 -26 583 -294 591 -285 6 5 -15 24 -46 41 -65 35 -54
41 22 12 28 -10 51 -11 51 -2 0 9 -25 26 -55 38 -30 11 -160 62 -289 112 -204
80 -303 111 -274 84z"/>
<path d="M3260 6435 c0 -5 77 -39 170 -74 94 -35 170 -69 170 -75 0 -5 -14 -5
-31 2 -19 7 -26 3 -18 -10 8 -12 31 -17 51 -12 21 6 33 3 28 -6 -6 -9 1 -22
15 -29 37 -17 -33 -1 -244 56 -297 82 -235 48 143 -78 423 -141 416 -163 -14
-39 -301 86 -461 113 -219 37 96 -30 107 -38 67 -48 -32 -8 49 -31 237 -67
156 -30 302 -49 323 -43 69 22 35 79 -65 110 -51 15 -93 35 -93 43 0 9 40 2
90 -15 49 -17 99 -27 111 -23 40 13 -229 131 -447 195 -119 35 -230 68 -245
74 -16 6 -29 7 -29 2z"/>
<path d="M8320 6358 c0 -7 -43 -18 -95 -26 -130 -17 -325 -74 -325 -94 0 -9
42 -4 93 12 51 15 85 20 75 11 -10 -9 -52 -27 -94 -41 -42 -13 -73 -28 -67
-33 5 -5 124 28 266 74 141 45 280 90 307 98 36 11 21 14 -55 13 -58 -1 -105
-8 -105 -14z"/>
<path d="M8199 6231 c-304 -86 -354 -112 -119 -61 28 6 5 -7 -50 -28 -143 -55
-67 -51 111 6 82 27 188 59 235 71 47 13 80 31 74 40 -6 10 5 22 25 27 29 8
28 9 -5 10 -22 0 -144 -29 -271 -65z"/>
<path d="M8230 6129 c-206 -32 -322 -64 -250 -69 46 -3 47 -4 10 -20 -31 -13
-32 -18 -8 -19 53 -2 424 97 446 119 24 24 18 23 -198 -11z"/>
<path d="M3080 6131 c0 -5 56 -25 125 -45 123 -35 124 -36 55 -47 -63 -10 -57
-13 71 -36 206 -37 233 -68 49 -55 l-150 10 130 -29 c72 -15 213 -34 314 -41
102 -8 180 -21 175 -30 -15 -24 -191 -18 -466 15 -290 35 -339 25 -89 -18
l176 -30 -180 -4 c-287 -7 -117 -46 200 -46 l260 -1 -197 -26 c-108 -14 -211
-30 -230 -36 -37 -12 221 3 347 20 66 9 74 7 43 -13 -20 -13 -155 -30 -300
-38 -237 -14 -247 -16 -103 -20 197 -7 121 -34 -110 -40 -178 -4 -135 -35 75
-55 138 -13 145 -24 30 -48 -51 -11 -20 -14 95 -8 206 11 162 -15 -85 -49
-228 -33 -224 -50 7 -32 223 18 225 -12 4 -49 -86 -14 -146 -29 -134 -33 12
-5 73 0 135 9 127 20 154 -4 38 -33 -237 -60 -245 -63 -130 -52 58 6 119 16
135 22 17 6 30 3 30 -8 0 -10 -61 -33 -135 -50 l-135 -31 130 11 c119 10 128
9 103 -22 -16 -18 -43 -34 -60 -35 -18 0 -69 -14 -113 -29 l-80 -28 76 11 c42
6 90 15 105 21 16 6 29 0 29 -13 0 -13 -19 -29 -42 -35 -28 -7 -34 -15 -17
-26 31 -19 7 -59 -37 -60 -29 -2 -29 -4 3 -17 35 -13 35 -17 6 -46 -17 -17
-26 -36 -21 -42 6 -6 -7 -71 -30 -146 -58 -193 -22 -235 39 -45 107 331 339
720 622 1042 138 156 147 214 34 217 -48 1 -132 9 -187 19 -82 14 -67 16 87
10 255 -9 206 18 -107 58 -143 18 -305 41 -360 50 -210 37 -230 40 -230 32z"/>
<path d="M8170 6011 c-66 -15 -127 -22 -135 -18 -27 16 -74 -23 -58 -48 11
-19 57 -13 191 24 256 70 257 97 2 42z"/>
<path d="M8153 5933 c-80 -14 -130 -31 -120 -41 10 -11 3 -13 -18 -6 -19 7
-35 4 -35 -7 0 -24 13 -24 180 4 80 13 142 34 148 50 6 15 4 26 -4 25 -8 -2
-76 -13 -151 -25z"/>
<path d="M8093 5839 c-53 -9 -102 -21 -108 -28 -19 -18 243 13 264 32 22 20
-19 19 -156 -4z"/>
<path d="M8000 5760 c-20 -13 7 -15 80 -7 61 7 114 16 118 20 20 17 -171 5
-198 -13z"/>
<path d="M3709 5418 c-9 -15 16 -17 84 -7 128 19 135 29 22 29 -51 0 -99 -10
-106 -22z"/>
<path d="M3690 5360 c-8 -12 23 -15 84 -7 126 17 134 27 21 27 -51 0 -98 -9
-105 -20z"/>
<path d="M3790 5320 c-55 -7 -122 -24 -150 -36 l-50 -21 60 -1 c61 -2 265 46
285 67 13 12 -1 11 -145 -9z"/>
<path d="M8542 5333 c4 -5 62 -13 128 -19 79 -7 99 -6 60 5 -62 17 -203 27
-188 14z"/>
<path d="M3820 5258 c-60 -20 -149 -46 -197 -58 -48 -13 -82 -28 -76 -34 14
-13 413 56 413 72 -2 49 -37 54 -140 20z"/>
<path d="M3747 5142 c-237 -65 -276 -79 -263 -93 10 -10 300 37 436 70 l70 17
-60 3 c-56 3 -57 5 -15 22 34 13 68 46 40 38 -3 -1 -96 -27 -208 -57z"/>
<path d="M7943 5151 c6 -7 100 -34 209 -62 109 -28 277 -74 374 -102 97 -28
181 -47 186 -42 5 5 -32 21 -82 35 -112 31 -143 68 -42 49 135 -25 72 7 -73
38 -245 51 -591 102 -572 84z"/>
<path d="M3682 5020 c-340 -117 -362 -152 -46 -70 261 67 403 115 304 102
l-70 -9 60 27 c124 58 -21 28 -248 -50z"/>
<path d="M7950 5079 c22 -10 72 -32 110 -49 39 -17 55 -26 36 -21 -270 73 -91
-46 222 -147 278 -90 333 -92 104 -3 -115 45 -214 87 -220 94 -7 7 6 7 28 -1
22 -8 87 -18 145 -23 58 -4 156 -23 217 -40 180 -53 142 -22 -57 47 -355 121
-753 219 -585 143z"/>
<path d="M3760 4946 c-288 -96 -314 -109 -180 -97 161 15 460 98 436 121 -5 5
-37 1 -72 -9 -83 -24 -82 -9 1 27 107 47 38 31 -185 -42z"/>
<path d="M7900 4983 c0 -9 20 -27 45 -39 41 -21 40 -22 -15 -11 -90 19 -55 -5
111 -75 136 -56 473 -178 496 -178 5 0 -133 72 -307 160 -341 173 -330 168
-330 143z"/>
<path d="M3980 4921 c-120 -37 -582 -226 -573 -235 6 -5 85 14 177 43 91 29
202 57 246 62 94 12 88 8 -200 -112 -185 -77 -356 -161 -260 -128 636 221 797
287 640 261 l-80 -12 68 30 c87 39 72 55 -26 28 -103 -29 -116 -7 -14 24 45
13 82 32 82 41 0 9 -2 16 -5 15 -3 -1 -27 -8 -55 -17z"/>
<path d="M7860 4893 c0 -13 468 -291 515 -305 19 -6 -14 21 -75 60 -128 83
-127 86 17 31 202 -76 122 -28 -150 92 -319 140 -307 135 -307 122z"/>
<path d="M7895 4778 c82 -53 84 -69 3 -27 -34 18 -66 27 -72 22 -20 -20 480
-241 517 -229 20 7 -463 276 -494 276 -10 -1 10 -19 46 -42z"/>
<path d="M3870 4693 c-203 -86 -454 -216 -441 -228 4 -4 41 8 84 26 389 167
466 161 141 -12 -286 -151 -225 -142 129 20 370 169 319 114 -73 -79 -154 -76
-273 -138 -264 -139 8 0 52 18 97 40 108 55 118 38 17 -28 -44 -30 -80 -58
-80 -64 0 -10 47 15 331 182 78 45 194 107 258 136 65 30 112 59 106 65 -6 6
-33 0 -58 -14 -41 -21 -44 -21 -22 6 13 16 18 36 10 44 -7 8 4 8 26 1 28 -9
31 -7 12 6 -14 11 -26 25 -25 32 7 48 -1 53 -43 32 -41 -20 -40 -18 5 19 77
63 14 49 -210 -45z"/>
<path d="M7780 4730 c0 -5 34 -28 75 -51 41 -23 62 -38 45 -33 -119 34 -106
22 70 -65 253 -124 324 -129 129 -9 -215 133 -319 184 -319 158z"/>
<path d="M8670 4626 c-348 -257 -784 -433 -1245 -505 -235 -36 -234 -72 12
-343 85 -93 185 -212 222 -264 79 -110 95 -119 49 -29 -45 90 -193 282 -326
424 -124 131 -91 115 78 -39 167 -152 281 -274 313 -335 31 -61 53 -74 33 -20
-11 31 -7 30 34 -5 44 -38 44 -36 -7 40 -76 113 -216 253 -376 375 -75 58
-128 108 -116 112 12 4 37 -7 57 -25 46 -42 74 -41 39 2 -59 72 301 -187 433
-312 77 -72 112 -100 79 -62 -33 39 -82 96 -109 129 l-50 58 64 -44 c36 -25
70 -53 76 -63 6 -10 40 -39 75 -64 l64 -45 -55 72 c-56 74 -289 299 -375 364
-48 36 -48 36 11 1 88 -50 207 -142 318 -246 76 -72 89 -79 57 -32 -45 67
-109 126 -249 233 -52 39 -89 77 -83 83 14 14 95 -41 243 -163 58 -48 110 -83
116 -78 5 6 -58 67 -141 136 -243 205 -115 153 169 -68 72 -56 113 -82 93 -58
-20 23 -103 95 -184 158 -81 63 -144 119 -140 123 9 9 201 -123 321 -219 l80
-65 -60 66 c-33 36 -113 105 -177 154 -64 48 -104 88 -88 88 16 0 69 -30 117
-66 245 -184 244 -168 -1 39 -98 83 -26 67 106 -23 162 -111 175 -103 22 13
-185 140 -93 146 118 7 88 -57 60 -22 -38 49 -116 83 -102 99 29 32 121 -61
137 -53 22 11 -44 25 -80 53 -80 62 0 25 16 20 111 -36 105 -61 121 -51 19 12
-71 44 -76 92 -8 74 21 -6 33 -3 28 6 -19 31 29 42 75 18 39 -21 42 -21 20 5
-20 25 -4 45 100 122 129 94 249 209 234 222 -5 4 -63 -32 -129 -81z"/>
<path d="M7770 4607 c39 -30 39 -31 -10 -17 -105 30 -6 -27 169 -97 219 -89
237 -82 58 22 -222 129 -312 167 -217 92z"/>
<path d="M4120 4495 c-139 -95 -362 -279 -351 -290 5 -6 32 4 60 22 140 92 -7
-77 -175 -201 -100 -74 -118 -120 -20 -51 131 92 159 94 76 4 l-80 -86 109 88
c60 49 145 128 189 175 87 95 187 164 133 92 -16 -21 -48 -60 -70 -87 -56 -66
94 49 178 137 32 34 67 62 78 62 27 0 -210 -224 -377 -356 -77 -60 -149 -119
-160 -130 -38 -38 38 11 130 83 148 116 157 114 30 -8 l-120 -115 100 56 c55
31 129 84 165 117 36 34 65 53 65 44 0 -9 16 -4 35 11 19 15 13 2 -13 -28 -55
-60 -38 -73 26 -19 73 60 -43 -74 -157 -182 -55 -53 -83 -87 -61 -75 51 26
223 190 298 282 64 80 51 48 -29 -71 -30 -44 -114 -138 -186 -209 -72 -71
-128 -132 -124 -136 13 -13 261 177 328 252 37 41 59 59 50 41 -9 -19 -56 -75
-103 -125 -47 -51 -78 -92 -67 -92 11 0 74 59 140 131 66 72 115 114 110 92
-6 -22 -75 -110 -154 -196 -136 -149 -138 -153 -41 -72 57 46 133 125 170 174
38 49 76 90 85 90 26 1 -50 -110 -165 -241 -58 -65 -96 -118 -85 -118 23 0
243 239 243 263 0 10 10 17 22 17 22 0 -132 -231 -215 -321 -26 -28 -47 -58
-47 -65 0 -19 176 176 237 262 26 37 52 61 58 56 6 -6 -46 -86 -114 -177 -88
-116 -102 -141 -48 -85 43 44 101 110 130 147 29 39 57 59 65 47 7 -12 -31
-78 -84 -147 -105 -139 -153 -216 -83 -137 158 181 184 204 199 180 10 -16 2
-41 -19 -64 -19 -20 -65 -80 -101 -132 l-67 -94 113 117 c118 122 184 121 99
-1 -47 -67 -110 -186 -98 -186 5 0 38 45 73 100 93 145 116 123 31 -30 -87
-155 -81 -171 10 -29 73 114 126 111 69 -4 l-32 -67 39 50 c61 75 76 31 26
-72 -24 -50 -36 -86 -26 -80 10 6 29 38 43 72 33 81 69 78 52 -4 -12 -61 -11
-62 17 -25 29 38 30 38 30 -7 1 -26 10 -41 21 -34 11 7 20 4 20 -7 0 -32 263
-303 294 -303 17 0 -16 52 -80 125 -291 333 -538 849 -616 1287 -31 172 -117
300 -180 267 -22 -12 -33 -31 -25 -43 8 -14 4 -16 -11 -7 -26 16 -87 -25 -72
-49 5 -8 -10 -32 -34 -52 -24 -21 -36 -27 -28 -13 8 15 4 25 -12 26 -26 0 -21
5 132 132 101 83 66 99 -48 22z m169 -284 c-19 -29 -52 -62 -72 -73 -21 -11
-33 -28 -27 -38 6 -9 2 -23 -9 -29 -44 -28 3 81 62 142 74 76 96 75 46 -2z"/>
<path d="M7710 4529 c63 -51 271 -152 296 -144 23 8 -224 147 -295 166 -41 11
-41 11 -1 -22z"/>
<path d="M3977 4471 c-128 -76 -437 -290 -437 -302 0 -4 25 4 55 18 145 64
265 138 365 223 185 158 187 164 17 61z"/>
<path d="M7660 4491 c0 -15 242 -155 252 -145 6 5 -43 42 -108 82 -114 69
-144 82 -144 63z"/>
<path d="M7620 4451 c0 -17 177 -131 203 -131 15 0 -20 32 -77 70 -101 68
-126 80 -126 61z"/>
<path d="M7600 4405 c1 -8 37 -40 80 -71 44 -31 80 -49 79 -40 -1 20 -159 131
-159 111z"/>
<path d="M4037 4007 c-15 -19 -79 -77 -143 -130 -64 -53 -112 -97 -106 -97 23
0 273 186 263 195 -6 6 -1 23 12 38 12 15 17 27 12 27 -6 0 -22 -15 -38 -33z"/>
<path d="M7194 4007 c-7 -7 12 -45 43 -85 94 -121 91 -138 -5 -32 -65 71 -91
90 -92 64 0 -22 -9 -31 -23 -22 -15 9 -18 5 -9 -9 8 -13 23 -19 32 -13 10 6
28 -8 41 -32 16 -30 16 -39 1 -29 -12 7 -22 5 -22 -5 0 -23 50 -67 63 -55 4 5
8 -8 8 -30 0 -48 10 -56 -80 62 -173 227 -50 -41 170 -371 202 -302 309 -381
123 -90 -132 206 -128 200 -109 200 9 0 60 -58 113 -130 52 -71 100 -130 106
-130 15 0 -46 92 -154 231 -90 115 -140 193 -140 218 0 18 126 -129 217 -254
46 -63 89 -115 96 -115 6 0 -22 46 -62 102 -109 151 -74 139 78 -26 122 -133
130 -139 94 -65 -51 103 -221 329 -243 324 -9 -3 -66 65 -125 150 -60 85 -114
149 -121 142z"/>
<path d="M4664 3906 c-34 -41 -57 -80 -52 -85 11 -11 72 59 109 124 33 56 10
40 -57 -39z"/>
<path d="M7540 3904 c49 -41 137 -118 195 -172 58 -54 105 -89 105 -79 0 23
-210 228 -293 284 -101 69 -105 48 -7 -33z"/>
<path d="M4699 3849 c-35 -51 -58 -97 -52 -102 8 -9 50 49 121 168 37 64 -13
15 -69 -66z"/>
<path d="M4785 3866 c-55 -77 -110 -188 -99 -198 9 -10 50 47 115 163 50 89
39 113 -16 35z"/>
<path d="M4787 3729 c-94 -205 -77 -225 39 -43 91 145 125 225 61 144 -32 -39
-32 -39 -21 5 19 83 -8 46 -79 -106z"/>
<path d="M6980 3838 c0 -34 250 -406 319 -474 93 -93 97 -66 8 58 -42 58 -117
177 -167 265 -79 137 -160 214 -160 151z"/>
<path d="M4935 3775 c-53 -80 -158 -299 -148 -308 9 -10 233 300 233 323 0 8
-15 3 -34 -13 -29 -24 -32 -23 -20 8 18 48 4 44 -31 -10z"/>
<path d="M7009 3648 c141 -261 294 -511 306 -500 5 6 -7 40 -29 76 -21 36 -54
107 -74 156 -36 92 -241 411 -278 434 -12 7 22 -67 75 -166z"/>
<path d="M6910 3728 c16 -40 25 -80 19 -89 -6 -10 12 -60 39 -113 27 -53 78
-166 113 -252 35 -86 67 -152 72 -148 4 4 -7 42 -24 83 -47 114 -21 107 48
-13 109 -186 68 -85 -107 264 -158 315 -232 439 -160 268z"/>
<path d="M4946 3578 c-57 -114 -98 -215 -92 -224 10 -17 181 235 237 352 l31
64 -53 -60 c-41 -47 -47 -50 -29 -14 12 25 19 56 15 68 -4 12 -53 -72 -109
-186z"/>
<path d="M6780 3747 c0 -23 325 -749 332 -741 13 12 -153 457 -221 592 -63
125 -111 190 -111 149z"/>
<path d="M6740 3720 c-1 -89 208 -678 233 -654 4 4 -5 39 -21 77 -16 38 -52
150 -80 249 -52 185 -131 381 -132 328z"/>
<path d="M5107 3635 c-140 -199 -256 -417 -166 -312 l40 47 -31 -78 c-58 -146
-19 -90 108 160 133 261 151 327 49 183z"/>
<path d="M6687 3677 c7 -29 18 -70 23 -90 6 -20 -7 -1 -28 43 -71 145 -44 17
57 -268 90 -256 162 -425 133 -312 -120 467 -173 657 -184 667 -7 7 -8 -11 -1
-40z"/>
<path d="M5194 3675 c-97 -228 -212 -523 -207 -529 9 -9 263 450 282 509 19
62 -1 57 -39 -10 l-32 -55 11 55 c12 57 3 74 -15 30z"/>
<path d="M5231 3489 c-98 -210 -180 -427 -166 -441 12 -11 248 502 266 577 25
103 -11 55 -100 -136z"/>
<path d="M6592 3584 c2 -105 61 -427 90 -492 17 -38 18 -37 10 8 -5 28 -14 86
-21 130 l-11 80 40 -80 c44 -88 44 -89 -30 210 -60 240 -81 278 -78 144z"/>
<path d="M5333 3555 c-155 -536 -204 -783 -84 -421 68 203 106 161 56 -61 -15
-65 -24 -127 -20 -139 9 -26 121 323 165 513 48 209 26 228 -29 24 -27 -98
-52 -168 -56 -156 -6 19 40 222 68 294 6 17 1 31 -11 31 -12 0 -22 -16 -22
-35 0 -19 -9 -48 -20 -65 -13 -21 -15 -6 -7 45 18 109 -5 92 -40 -30z"/>
<path d="M6451 3590 c8 -33 50 -163 93 -290 88 -259 93 -187 13 165 -43 185
-70 233 -51 90 l11 -85 -24 73 c-29 92 -61 128 -42 47z"/>
<path d="M5511 3598 c-5 -15 -19 -82 -30 -148 -12 -66 -39 -183 -61 -260 -46
-162 -51 -226 -9 -140 27 57 28 54 16 -70 -15 -167 0 -151 40 41 57 279 90
709 44 577z"/>
<path d="M5553 3375 c-8 -124 -18 -261 -23 -305 l-9 -80 26 90 c47 159 52 154
42 -50 -11 -237 1 -228 41 31 l29 189 -7 -210 c-10 -275 19 -137 39 185 20
323 49 295 51 -50 1 -330 13 -334 36 -13 l16 228 5 -280 c5 -250 8 -268 25
-170 10 61 16 174 12 253 -9 188 16 169 37 -28 15 -148 16 -151 27 -65 10 72
15 45 29 -137 19 -256 39 -258 64 -5 l17 172 11 -160 12 -160 3 186 c4 169 41
256 46 108 1 -30 14 -99 29 -154 l27 -100 -11 110 c-5 61 -14 126 -20 145 -5
19 0 35 11 35 11 0 26 -34 33 -75 32 -196 48 -237 38 -98 -13 170 28 177 65
11 23 -104 24 -105 20 -23 -7 123 18 104 52 -40 l30 -125 -11 118 c-8 87 -5
114 12 104 13 -8 23 -30 23 -48 1 -27 4 -28 18 -6 21 33 59 13 82 -45 14 -33
18 -35 19 -9 1 45 61 24 61 -21 1 -27 4 -28 18 -5 11 17 28 21 45 10 15 -9 36
-19 47 -21 11 -2 61 -16 110 -31 192 -59 163 -10 -44 73 -347 139 -665 334
-913 558 -107 96 -163 133 -203 133 l-54 0 -13 -225z"/>
<path d="M6292 3569 c-6 -17 8 -110 33 -205 55 -214 76 -140 25 88 -35 157
-39 166 -58 117z"/>
<path d="M6362 3578 c-1 -18 7 -58 17 -90 10 -32 38 -123 61 -203 63 -220 79
-173 26 79 -49 233 -65 277 -68 194 l-2 -48 -16 50 c-9 28 -17 36 -18 18z"/>
<path d="M6114 3480 c7 -60 15 -114 19 -118 15 -18 3 150 -13 188 -10 25 -13
-2 -6 -70z"/>
<path d="M6173 3470 c6 -66 20 -133 30 -150 22 -37 -2 173 -26 230 -10 24 -12
-8 -4 -80z"/>
<path d="M6229 3485 c25 -184 36 -225 55 -225 11 0 16 20 10 45 -6 25 -21 97
-34 160 -28 139 -50 153 -31 20z"/>
<path d="M8232 2249 c-1328 -801 -3224 -800 -4507 2 -47 29 -85 48 -85 43 0
-6 79 -60 175 -121 1349 -849 3036 -844 4360 12 160 103 203 135 180 135 -3 0
-58 -32 -123 -71z"/>
</g>
</svg>
